<?xml version="1.0" standalone="no"?>
<!DOCTYPE svg PUBLIC "-//W3C//DTD SVG 20010904//EN"
 "http://www.w3.org/TR/2001/REC-SVG-20010904/DTD/svg10.dtd">
<svg version="1.0" xmlns="http://www.w3.org/2000/svg"
 width="128.000000pt" height="128.000000pt" viewBox="0 0 128.000000 128.000000"
 preserveAspectRatio="xMidYMid meet">

<g transform="translate(0.000000,128.000000) scale(0.100000,-0.100000)"
fill="#000000" stroke="none">
<path d="M602 1223 c-5 -10 -13 -46 -17 -80 -4 -35 -15 -73 -24 -85 -10 -13
-20 -30 -24 -39 -6 -17 -85 -49 -120 -49 -10 0 -37 -18 -60 -41 -23 -22 -46
-44 -52 -47 -15 -11 -75 -90 -75 -100 0 -5 -8 -20 -18 -33 -11 -13 -31 -58
-46 -100 -24 -69 -25 -81 -15 -128 10 -49 9 -54 -12 -77 -13 -14 -43 -37 -66
-52 -46 -29 -52 -42 -28 -62 11 -9 22 -9 52 0 21 7 44 18 52 24 10 8 17 5 30
-13 9 -13 40 -50 70 -82 57 -62 57 -62 35 -155 -7 -27 23 -59 41 -44 7 6 20
35 30 65 9 30 21 55 26 55 6 0 22 -9 38 -20 38 -29 148 -50 256 -50 82 0 97 3
161 34 67 32 71 33 92 16 11 -10 24 -29 27 -43 9 -33 50 -71 69 -64 18 7 21
44 5 84 -5 15 -13 49 -15 76 -5 44 -2 53 25 87 17 22 31 47 31 57 0 10 7 32
16 48 12 23 17 62 18 159 l1 130 28 16 c15 10 33 24 40 33 7 8 28 24 47 35 39
21 54 62 23 62 -10 0 -36 -7 -58 -15 -22 -8 -60 -14 -84 -15 -41 0 -48 4 -111
69 -49 50 -89 79 -149 109 -45 23 -92 41 -103 39 -25 -3 -29 6 -65 118 -30 92
-51 116 -71 78z m35 -340 c3 -10 23 -60 45 -112 24 -57 36 -97 30 -103 -8 -8
-182 -60 -182 -54 0 1 11 36 25 77 14 41 33 104 41 142 15 66 29 83 41 50z
m251 -87 c17 -16 32 -35 32 -41 0 -6 -15 -16 -32 -22 -70 -24 -78 -25 -78 -9
0 8 -9 30 -20 49 -24 40 -41 93 -33 101 8 8 93 -43 131 -78z m-408 -2 c-25
-70 -35 -103 -51 -167 -9 -35 -18 -49 -34 -53 -12 -3 -44 -16 -71 -29 l-49
-24 -3 27 c-4 41 33 146 70 196 33 44 150 132 156 116 2 -4 -6 -34 -18 -66z
m520 -196 c-1 -66 -10 -117 -32 -181 -19 -56 -40 -44 -55 30 -7 33 -21 84 -32
112 l-19 51 35 15 c20 8 41 15 49 15 7 0 16 5 19 10 3 6 13 10 21 10 11 0 14
-15 14 -62z m-232 -51 c6 -7 18 -44 27 -82 9 -38 22 -80 30 -92 8 -12 15 -31
15 -42 0 -11 5 -23 10 -26 56 -35 -131 -112 -231 -95 -85 15 -189 58 -189 79
0 20 33 127 50 163 19 40 55 60 150 84 102 26 124 28 138 11z m-428 -141 c0
-8 -5 -27 -10 -41 -9 -23 -13 -25 -25 -15 -18 15 -20 56 -2 63 23 10 37 7 37
-7z"/>
</g>
</svg>
